<svg width="1440" height="1024" viewBox="0 0 1440 1024" fill="none" xmlns="http://www.w3.org/2000/svg">
<g clip-path="url(#clip0_768_9220)">
<path d="M1943.86 0H1358.14L869.083 488.745C831.791 526.012 858.186 589.762 910.907 589.762C926.592 589.762 941.635 583.534 952.73 572.447L1441.8 83.7054L1948.13 589.836H2534L1943.86 0.073567V0ZM1907.66 687.664L1441.8 221.915L1077.72 585.781C1068.34 595.159 1063.07 607.881 1063.07 621.147V1026.5C1063.09 1052.42 1063.07 1032.25 1069.5 1088C1087.84 1106.33 1134.93 1064.98 1160.86 1065H1608.03H1949.23H2140.4C2166.36 1065 2191.25 1054.69 2209.6 1036.35C2227.96 1018 2238.27 993.118 2238.27 967.172V687.59H1907.59L1907.66 687.664Z" fill="white"/>
</g>
<defs>
<clipPath id="clip0_768_9220">
<rect width="589" height="1024" fill="white" transform="translate(851)"/>
</clipPath>
</defs>
</svg>
