<svg width="589" height="1024" viewBox="0 0 589 1024" fill="none" xmlns="http://www.w3.org/2000/svg">
<g clip-path="url(#clip0_763_9216)">
<path d="M1092.86 0H507.139L18.0826 488.745C-19.2088 526.012 7.1855 589.762 59.9067 589.762C75.5918 589.762 90.635 583.534 101.73 572.447L590.803 83.7054L1097.13 589.836H1683L1092.86 0.073567V0ZM1056.66 687.664L590.803 221.915L226.725 585.781C217.342 595.159 212.07 607.881 212.07 621.147V1026.5C212.09 1052.42 212.07 1032.25 218.501 1088C236.836 1106.33 283.932 1064.98 309.862 1065H757.028H1098.23H1289.4C1315.36 1065 1340.25 1054.69 1358.6 1036.35C1376.96 1018 1387.27 993.118 1387.27 967.172V687.59H1056.59L1056.66 687.664Z" fill="white"/>
</g>
<defs>
<clipPath id="clip0_763_9216">
<rect width="589" height="1024" fill="white"/>
</clipPath>
</defs>
</svg>
